<svg width="72" height="72" viewBox="0 0 72 72" fill="none" xmlns="http://www.w3.org/2000/svg">
<path fill-rule="evenodd" clip-rule="evenodd" d="M50.2946 5.82161L52.6521 0H56.5943L54.5211 5.18141C55.8042 5.09094 57.1142 5.07184 57.4982 5.07576C62.7282 5.12952 65.743 5.44484 67.8308 8.95444L67.8307 8.95838L71.7134 17.5695C72.2748 18.8967 71.8989 20.2829 71.5406 21.604C71.5149 21.6988 71.4893 21.7933 71.4641 21.8874C70.9656 23.7512 69.9932 25.3174 68.8356 26.7568C69.156 27.1191 69.4518 27.5262 69.724 27.9837L69.7239 27.9867C70.5157 29.4997 71.0328 30.561 71.4385 31.6414C72.0975 33.1303 71.6618 35.6114 69.7521 38.8656C66.2134 44.0623 61.6762 48.2599 56.6746 51.9838C52.0024 55.4779 47.3246 58.3049 42.6519 60.3742L39.0632 54.687C45.0924 51.6532 51.2159 48.2845 55.9833 45.0164C59.7374 42.4232 63.3556 39.6577 66.3384 36.1568C66.5688 35.849 66.7879 35.5613 66.9955 35.2886C68.1659 33.7517 68.9738 32.6907 69.392 31.177C69.2743 30.8523 68.2363 30.1316 66.4566 29.4136C63.0315 33.0141 59.3852 36.3778 55.4459 39.4125C48.6927 44.3715 43.516 47.9074 35.4336 51.491L30.1012 43.0658C37.1958 39.8807 44.3884 36.0705 50.0844 32.461C52.5452 30.9104 54.9056 29.2753 57.1738 27.5186C53.6431 27.3247 50.0018 27.565 47.0452 27.7601L47.0446 27.7601C46.4853 27.797 45.9505 27.8323 45.4456 27.8627L41.8629 36.8165H32.0984L30.6003 33.2162C25.3608 36.9407 20.0203 41.2097 15.7997 46.0802C14.4481 47.6401 13.2943 49.3337 12.2961 51.1499C10.5526 54.5068 10.843 56.7619 12.0649 60.1277L12.063 60.1267L12.0642 60.1295C12.775 60.5223 13.4718 60.8813 14.1355 61.2046C19.5821 63.4942 23.5793 63.9814 28.7634 63.8665C34.5339 63.8068 47.2637 59.2605 52.0914 57.3572L57.2474 66.3184C47.9575 71.2248 37.8102 72.1959 32.256 71.97C26.0338 71.7893 23.4698 71.5188 17.6098 69.0369C10.8409 65.3481 7.51524 61.3139 3.89898 53.6526C2.80313 51.6446 2.46905 49.0487 3.4929 46.6282C4.65117 43.7375 5.35818 42.1152 8.65576 37.9694C8.26782 37.805 7.99046 37.4247 7.97727 36.9742C7.95926 36.3585 8.44128 35.8448 9.0539 35.8267C9.45474 35.8148 9.81234 36.0181 10.0166 36.3328C14.128 31.8167 20.7456 26.9112 26.5748 23.5418L22.9217 14.7624C22.5631 14.9736 22.235 15.0769 21.7903 15.09C21.4887 15.099 21.1973 15.0551 20.9253 14.9667C21.4516 15.3542 21.8018 15.9718 21.8253 16.6776L21.8256 16.6866C21.8613 17.9073 20.9055 18.9261 19.6907 18.962C18.698 18.9913 17.8395 18.3552 17.5393 17.4554C17.2544 18.3084 16.4646 18.934 15.5173 18.962C14.4991 18.9921 13.6221 18.3221 13.344 17.3856C13.0796 18.2741 12.2728 18.9332 11.2999 18.962C10.0851 18.9979 9.07141 18.0374 9.03568 16.8166C8.99995 15.5958 9.95575 14.5771 11.1705 14.5412C11.441 14.5332 11.7015 14.5746 11.9435 14.6573C11.2784 14.2103 10.8307 13.4583 10.8054 12.5939C10.7639 11.1732 11.8756 9.98467 13.2893 9.94289C13.2925 9.94279 13.2955 9.94283 13.2986 9.94287L13.3037 9.94292L13.3071 9.94289C12.9713 9.49434 12.7616 8.93813 12.7439 8.3344C12.7029 6.93267 13.6911 5.74442 15.0203 5.49274C14.7917 5.07249 14.6722 4.62725 14.6409 4.1285C14.6425 2.52401 16.0896 0.780642 18.2749 1.02181H27.0397L32.0038 12.9372C36.836 9.44464 44.8167 6.96137 50.2946 5.82161ZM17.5393 16.0478C17.6848 15.6123 17.9619 15.2361 18.3244 14.9684C18.1007 15.0406 17.8633 15.0828 17.6169 15.09C17.3143 15.099 17.0224 15.0546 16.7501 14.9654C17.1133 15.2322 17.3928 15.6085 17.5393 16.0478ZM19.0039 14.6299C19.1812 14.5775 19.368 14.5469 19.5613 14.5412C19.8009 14.5341 20.0326 14.5658 20.2506 14.6306C20.009 14.4618 19.7975 14.2523 19.6265 14.0118C19.4559 14.2513 19.2452 14.4608 19.0039 14.6299ZM15.4531 14.0058C15.6258 14.2497 15.8396 14.462 16.084 14.6326C15.8641 14.5664 15.63 14.534 15.3879 14.5412C15.193 14.547 15.0048 14.578 14.8263 14.6311C15.0694 14.4605 15.2815 14.2485 15.4531 14.0058ZM13.4435 15.09C13.6904 15.0827 13.9278 15.0405 14.1514 14.9681C13.7695 15.25 13.4823 15.6523 13.3439 16.1176C13.1999 15.6326 12.8953 15.2192 12.4938 14.9375C12.7896 15.0453 13.1101 15.0999 13.4435 15.09ZM48.2444 10.8843C45.7075 11.5397 42.7103 12.5994 39.9619 13.5711C38.2793 14.166 36.6899 14.728 35.3564 15.144C34.8458 15.3397 34.3024 15.4996 33.8402 15.6355L33.8397 15.6357L33.8393 15.6358C33.6024 15.7055 33.3869 15.7689 33.208 15.8277L38.1729 27.7452C39.137 27.3745 40.4466 26.9615 41.8947 26.5643L48.2444 10.8843ZM46.4263 25.4117C50.4742 24.3827 54.8279 24.0299 58.9229 23.873C59.8163 23.8822 60.6588 23.9058 61.4521 23.9561C62.1799 23.304 62.8979 22.6352 63.6062 21.9484C65.2342 20.4026 66.2697 18.803 66.9203 17.2704C66.8352 12.3646 59.5583 9.7839 52.5164 10.1914L46.4263 25.4117ZM41.2436 28.1722C40.136 28.2861 39.209 28.4143 38.5109 28.5566L39.8177 31.6932L41.2436 28.1722ZM69.7237 28.0856C69.7227 28.0649 69.7226 28.0427 69.723 28.0204L69.7237 28.0856Z" fill="black"/>
<path d="M8.59214 24.763C8.62001 25.7154 7.87432 26.5102 6.92658 26.5382C5.97885 26.5662 5.18796 25.8168 5.16008 24.8644C5.13221 23.912 5.8779 23.1172 6.82564 23.0892C7.77065 23.0613 8.56028 23.8064 8.59192 24.7559L8.59214 24.763Z" fill="black"/>
<path d="M15.2273 26.5382C16.175 26.5102 16.9207 25.7154 16.8928 24.763L16.8926 24.756C16.861 23.8064 16.0714 23.0613 15.1263 23.0892C14.1786 23.1172 13.4329 23.912 13.4608 24.8644C13.4887 25.8168 14.2796 26.5662 15.2273 26.5382Z" fill="black"/>
<path d="M12.8766 24.763C12.9045 25.7154 12.1588 26.5102 11.2111 26.5382C10.2633 26.5662 9.47243 25.8168 9.44456 24.8644C9.41668 23.912 10.1624 23.1172 11.1101 23.0892C12.0551 23.0613 12.8447 23.8064 12.8764 24.756L12.8766 24.763Z" fill="black"/>
<path d="M12.7711 30.3396C13.567 30.3161 14.1932 29.6486 14.1698 28.8488L14.1696 28.8429C14.143 28.0455 13.4799 27.4198 12.6863 27.4432C11.8904 27.4667 11.2642 28.1342 11.2876 28.934C11.311 29.7338 11.9752 30.3631 12.7711 30.3396Z" fill="black"/>
<path d="M5.8972 28.8488C5.92061 29.6486 5.29439 30.3161 4.4985 30.3396C3.70261 30.3631 3.03844 29.7338 3.01503 28.934C2.99162 28.1342 3.61784 27.4668 4.41373 27.4432C5.20733 27.4198 5.87044 28.0455 5.89701 28.8429L5.8972 28.8488Z" fill="black"/>
<path d="M8.7383 30.3396C9.53419 30.3161 10.1604 29.6486 10.137 28.8488L10.1368 28.8429C10.1102 28.0455 9.44713 27.4198 8.65353 27.4432C7.85764 27.4667 7.23142 28.1342 7.25483 28.934C7.27824 29.7338 7.94241 30.3631 8.7383 30.3396Z" fill="black"/>
<path d="M10.6322 34.0657C11.2448 34.0476 11.7268 33.5339 11.7088 32.9182L11.7087 32.9137C11.6882 32.2999 11.1778 31.8182 10.5669 31.8363C9.95432 31.8544 9.47229 32.3681 9.49031 32.9838C9.50833 33.5994 10.0196 34.0838 10.6322 34.0657Z" fill="black"/>
<path d="M2.219 36.9085C2.23702 37.5242 1.75499 38.0379 1.14237 38.056C0.529746 38.0741 0.0185076 37.5897 0.000489141 36.9741C-0.0175293 36.3584 0.464492 35.8447 1.07712 35.8266C1.68798 35.8085 2.1984 36.2902 2.21886 36.904L2.219 36.9085Z" fill="black"/>
<path d="M2.35652 34.0658C2.96914 34.0477 3.45117 33.5339 3.43315 32.9183L3.43301 32.9137C3.41255 32.3 2.90213 31.8183 2.29127 31.8363C1.67864 31.8545 1.19662 32.3682 1.21464 32.9839C1.23266 33.5995 1.74389 34.0839 2.35652 34.0658Z" fill="black"/>
<path d="M6.29128 36.9086C6.3093 37.5242 5.82728 38.038 5.21465 38.0561C4.60203 38.0742 4.09079 37.5898 4.07277 36.9742C4.05475 36.3585 4.53677 35.8448 5.1494 35.8267C5.76026 35.8086 6.27068 36.2903 6.29114 36.9041L6.29128 36.9086Z" fill="black"/>
<path d="M6.59685 34.0657C7.20947 34.0476 7.6915 33.5339 7.67348 32.9182L7.67334 32.9137C7.65288 32.2999 7.14246 31.8182 6.5316 31.8363C5.91897 31.8544 5.43695 32.3681 5.45497 32.9838C5.47299 33.5994 5.98422 34.0838 6.59685 34.0657Z" fill="black"/>
<path d="M11.15 20.4736C11.1825 21.5839 10.3132 22.5104 9.20835 22.5431C8.10353 22.5757 7.18156 21.7022 7.14906 20.5919C7.11657 19.4816 7.98585 18.5551 9.09068 18.5224C10.1923 18.4899 11.1128 19.3585 11.1497 20.4655L11.15 20.4736Z" fill="black"/>
<path d="M13.4426 22.5431C14.5474 22.5104 15.4167 21.5839 15.3842 20.4736L15.3839 20.4655C15.347 19.3585 14.4265 18.4899 13.3249 18.5224C12.2201 18.5551 11.3508 19.4816 11.3833 20.5919C11.4158 21.7022 12.3377 22.5757 13.4426 22.5431Z" fill="black"/>
<path d="M19.4507 20.4736C19.4832 21.5839 18.6139 22.5104 17.5091 22.5431C16.4043 22.5757 15.4823 21.7022 15.4498 20.5919C15.4173 19.4816 16.2866 18.5551 17.3914 18.5224C18.493 18.4899 19.4135 19.3585 19.4504 20.4655L19.4507 20.4736Z" fill="black"/>
</svg>
